<svg xmlns="http://www.w3.org/2000/svg" fill="none" viewBox="0 0 364 364">
  <g clip-path="url(#a)">
    <mask id="b" width="434" height="292" x="-35" y="223" maskUnits="userSpaceOnUse" style="mask-type:alpha">
      <path fill="#fff" fill-rule="evenodd" d="m39 265 71.25-41.07-.5-.86L37.5 264.7v83l-72 41.5v83.58L38 514.58l72.5-41.8V389.8l71.5-41.21 71.5 41.21v83l72.5 41.79 72.5-41.8v-83.57l-72-41.5v-83l-72.25-41.64-.5.86L325 265l-71 40.92-71.75-41.35-.25.43-.25-.43L110 305.92 39 265Zm142.5.87-71 40.92v81.84l71-40.92v-81.84Zm-143 0 71 40.92v81.84l-71-40.92v-81.84Zm144 81.84v-81.84l71 40.92v81.84l-71-40.92Zm72 40.93 71-40.93v-81.84l-71 40.92v81.84ZM38 348.57l-71.5 41.2v82.43L38 513.42l71.5-41.2v-82.43L38 348.58Zm216.5 41.2 71.5-41.2 71.5 41.21v82.42L326 513.42l-71.5-41.2v-82.43Z" clip-rule="evenodd"/>
    </mask>
    <g mask="url(#b)">
      <circle cx="39" cy="265" r="56" fill="url(#c)"/>
      <circle cx="254" cy="306" r="56" fill="url(#d)"/>
      <circle cx="110" cy="306" r="56" fill="url(#e)"/>
      <circle cx="182" cy="348" r="56" fill="url(#f)"/>
      <circle cx="324" cy="348" r="56" fill="url(#g)"/>
      <circle cx="40" cy="348" r="56" fill="url(#h)"/>
      <circle cx="325" cy="265" r="56" fill="url(#i)"/>
    </g>
  </g>
  <defs>
    <radialGradient id="c" cx="0" cy="0" r="1" gradientTransform="matrix(0 56 -56 0 39 265)" gradientUnits="userSpaceOnUse">
      <stop stop-color="#fff" stop-opacity=".3"/>
      <stop offset="1" stop-color="#fff" stop-opacity="0"/>
    </radialGradient>
    <radialGradient id="d" cx="0" cy="0" r="1" gradientTransform="matrix(0 56 -56 0 254 306)" gradientUnits="userSpaceOnUse">
      <stop stop-color="#fff" stop-opacity=".3"/>
      <stop offset="1" stop-color="#fff" stop-opacity="0"/>
    </radialGradient>
    <radialGradient id="e" cx="0" cy="0" r="1" gradientTransform="matrix(0 56 -56 0 110 306)" gradientUnits="userSpaceOnUse">
      <stop stop-color="#fff" stop-opacity=".3"/>
      <stop offset="1" stop-color="#fff" stop-opacity="0"/>
    </radialGradient>
    <radialGradient id="f" cx="0" cy="0" r="1" gradientTransform="matrix(0 56 -56 0 182 348)" gradientUnits="userSpaceOnUse">
      <stop stop-color="#fff" stop-opacity=".3"/>
      <stop offset="1" stop-color="#fff" stop-opacity="0"/>
    </radialGradient>
    <radialGradient id="g" cx="0" cy="0" r="1" gradientTransform="matrix(0 56 -56 0 324 348)" gradientUnits="userSpaceOnUse">
      <stop stop-color="#fff" stop-opacity=".3"/>
      <stop offset="1" stop-color="#fff" stop-opacity="0"/>
    </radialGradient>
    <radialGradient id="h" cx="0" cy="0" r="1" gradientTransform="matrix(0 56 -56 0 40 348)" gradientUnits="userSpaceOnUse">
      <stop stop-color="#fff" stop-opacity=".3"/>
      <stop offset="1" stop-color="#fff" stop-opacity="0"/>
    </radialGradient>
    <radialGradient id="i" cx="0" cy="0" r="1" gradientTransform="matrix(0 56 -56 0 325 265)" gradientUnits="userSpaceOnUse">
      <stop stop-color="#fff" stop-opacity=".3"/>
      <stop offset="1" stop-color="#fff" stop-opacity="0"/>
    </radialGradient>
    <clipPath id="a">
      <path fill="#fff" d="M0 0h364v364H0z"/>
    </clipPath>
  </defs>
</svg>