
<svg xmlns="http://www.w3.org/2000/svg" fill="none" viewBox="0 0 364 364">
  <path fill="url(#a)" d="M181.5 108h1v10.5h-1V108Z"/>
  <path fill="url(#b)" d="M181.5 126.5v-4.11h1v4.11h-1Z"/>
  <path fill="url(#c)" d="M181.5 134.72v-4.1h1v4.1h-1Z"/>
  <path fill="url(#d)" d="M181.5 142.94v-4.1h1v4.1h-1Z"/>
  <path fill="url(#e)" d="M181.5 151.17v-4.11h1v4.1h-1Z"/>
  <path fill="url(#f)" d="M181.5 159.39v-4.11h1v4.1h-1Z"/>
  <path fill="url(#g)" d="M181.5 167.61v-4.11h1v4.11h-1Z"/>
  <path fill="url(#h)" d="M181.5 171.5h1v10.21l8.64 5-.5.86-8.64-5-8.64 5-.5-.86 8.64-5V171.5Z"/>
  <path fill="url(#i)" d="m197.75 191.68-3.56-2.05.5-.87 3.56 2.06-.5.86Z"/>
  <path fill="url(#j)" d="m169.8 189.63-3.55 2.05-.5-.86 3.56-2.06.5.87Z"/>
  <path fill="url(#k)" d="m204.86 195.8-3.56-2.06.5-.87 3.56 2.06-.5.86Z"/>
  <path fill="url(#l)" d="m162.7 193.74-3.56 2.05-.5-.86 3.55-2.06.5.87Z"/>
  <path fill="url(#m)" d="m211.97 199.9-3.55-2.05.5-.87 3.55 2.06-.5.87Z"/>
  <path fill="url(#n)" d="m155.58 197.85-3.55 2.06-.5-.87 3.55-2.06.5.87Z"/>
  <path fill="url(#o)" d="m148.47 201.96-3.55 2.06-.5-.87 3.55-2.06.5.87Z"/>
  <path fill="url(#p)" d="m219.08 204.02-3.55-2.06.5-.87 3.55 2.06-.5.87Z"/>
  <path fill="url(#q)" d="m141.36 206.07-3.55 2.06-.5-.87 3.55-2.05.5.86Z"/>
  <path fill="url(#r)" d="m226.2 208.13-3.56-2.06.5-.86 3.56 2.05-.5.87Z"/>
  <path fill="url(#s)" d="m134.25 210.18-3.56 2.06-.5-.87 3.56-2.05.5.86Z"/>
  <path fill="url(#t)" d="m233.3 212.24-3.55-2.06.5-.86 3.56 2.05-.5.87Z"/>
  <path fill="url(#u)" d="m236.86 214.3.5-.87 8.89 5.14-.5.86-8.89-5.14Z"/>
  <path fill="url(#v)" d="m127.14 214.3-8.89 5.13-.5-.86 8.89-5.14.5.86Z"/>
  <g filter="url(#w)">
    <path fill="url(#x)" fill-rule="evenodd" d="m182 99-72 41.5v83l72 41.5 72-41.5v-83L182 99Zm0 9-64 37v74l64 37 64-37v-74l-64-37Z" clip-rule="evenodd"/>
  </g>
  <g filter="url(#y)" opacity=".4">
    <path fill="url(#z)" fill-rule="evenodd" d="m182 99-72 41.5v83l72 41.5 72-41.5v-83L182 99Zm0 9-64 37v74l64 37 64-37v-74l-64-37Z" clip-rule="evenodd"/>
  </g>
  <path fill="url(#A)" d="M182 256v-74l64-37v74l-64 37Z"/>
  <path fill="url(#B)" d="M118 145v74l64 37.1V182l-64-37Z"/>
  <path fill="url(#C)" d="m118 145 64-37 64 37-64 37-64-37Z"/>
  <g filter="url(#D)">
    <path fill="url(#E)" fill-rule="evenodd" d="M178 101.3a8 8 0 0 1 8 0l64 36.9a8 8 0 0 1 4 6.92v73.76a8 8 0 0 1-4 6.93l-64 36.89a8 8 0 0 1-8 0l-64-36.9a8 8 0 0 1-4-6.92v-73.76a8 8 0 0 1 4-6.93l64-36.89Zm-59.5 43.41 63.5-36.7 63.5 36.7-63.5 36.71-63.5-36.7Zm-.5.29Zm0 .58V219l63.5 36.71V182.3L118 145.58Zm64.5 110.13 63.5-36.7v-73.43l-63.5 36.7v73.43Z" clip-rule="evenodd" shape-rendering="crispEdges"/>
  </g>
  <defs>
    <radialGradient id="a" cx="0" cy="0" r="1" gradientTransform="matrix(0 70.5 -80 0 182 182)" gradientUnits="userSpaceOnUse">
      <stop stop-color="#fff" stop-opacity=".1"/>
      <stop offset="1" stop-color="#fff" stop-opacity="0"/>
    </radialGradient>
    <radialGradient id="b" cx="0" cy="0" r="1" gradientTransform="matrix(0 70.5 -80 0 182 182)" gradientUnits="userSpaceOnUse">
      <stop stop-color="#fff" stop-opacity=".1"/>
      <stop offset="1" stop-color="#fff" stop-opacity="0"/>
    </radialGradient>
    <radialGradient id="c" cx="0" cy="0" r="1" gradientTransform="matrix(0 70.5 -80 0 182 182)" gradientUnits="userSpaceOnUse">
      <stop stop-color="#fff" stop-opacity=".1"/>
      <stop offset="1" stop-color="#fff" stop-opacity="0"/>
    </radialGradient>
    <radialGradient id="d" cx="0" cy="0" r="1" gradientTransform="matrix(0 70.5 -80 0 182 182)" gradientUnits="userSpaceOnUse">
      <stop stop-color="#fff" stop-opacity=".1"/>
      <stop offset="1" stop-color="#fff" stop-opacity="0"/>
    </radialGradient>
    <radialGradient id="e" cx="0" cy="0" r="1" gradientTransform="matrix(0 70.5 -80 0 182 182)" gradientUnits="userSpaceOnUse">
      <stop stop-color="#fff" stop-opacity=".1"/>
      <stop offset="1" stop-color="#fff" stop-opacity="0"/>
    </radialGradient>
    <radialGradient id="f" cx="0" cy="0" r="1" gradientTransform="matrix(0 70.5 -80 0 182 182)" gradientUnits="userSpaceOnUse">
      <stop stop-color="#fff" stop-opacity=".1"/>
      <stop offset="1" stop-color="#fff" stop-opacity="0"/>
    </radialGradient>
    <radialGradient id="g" cx="0" cy="0" r="1" gradientTransform="matrix(0 70.5 -80 0 182 182)" gradientUnits="userSpaceOnUse">
      <stop stop-color="#fff" stop-opacity=".1"/>
      <stop offset="1" stop-color="#fff" stop-opacity="0"/>
    </radialGradient>
    <radialGradient id="h" cx="0" cy="0" r="1" gradientTransform="matrix(0 70.5 -80 0 182 182)" gradientUnits="userSpaceOnUse">
      <stop stop-color="#fff" stop-opacity=".1"/>
      <stop offset="1" stop-color="#fff" stop-opacity="0"/>
    </radialGradient>
    <radialGradient id="i" cx="0" cy="0" r="1" gradientTransform="matrix(0 70.5 -80 0 182 182)" gradientUnits="userSpaceOnUse">
      <stop stop-color="#fff" stop-opacity=".1"/>
      <stop offset="1" stop-color="#fff" stop-opacity="0"/>
    </radialGradient>
    <radialGradient id="j" cx="0" cy="0" r="1" gradientTransform="matrix(0 70.5 -80 0 182 182)" gradientUnits="userSpaceOnUse">
      <stop stop-color="#fff" stop-opacity=".1"/>
      <stop offset="1" stop-color="#fff" stop-opacity="0"/>
    </radialGradient>
    <radialGradient id="k" cx="0" cy="0" r="1" gradientTransform="matrix(0 70.5 -80 0 182 182)" gradientUnits="userSpaceOnUse">
      <stop stop-color="#fff" stop-opacity=".1"/>
      <stop offset="1" stop-color="#fff" stop-opacity="0"/>
    </radialGradient>
    <radialGradient id="l" cx="0" cy="0" r="1" gradientTransform="matrix(0 70.5 -80 0 182 182)" gradientUnits="userSpaceOnUse">
      <stop stop-color="#fff" stop-opacity=".1"/>
      <stop offset="1" stop-color="#fff" stop-opacity="0"/>
    </radialGradient>
    <radialGradient id="m" cx="0" cy="0" r="1" gradientTransform="matrix(0 70.5 -80 0 182 182)" gradientUnits="userSpaceOnUse">
      <stop stop-color="#fff" stop-opacity=".1"/>
      <stop offset="1" stop-color="#fff" stop-opacity="0"/>
    </radialGradient>
    <radialGradient id="n" cx="0" cy="0" r="1" gradientTransform="matrix(0 70.5 -80 0 182 182)" gradientUnits="userSpaceOnUse">
      <stop stop-color="#fff" stop-opacity=".1"/>
      <stop offset="1" stop-color="#fff" stop-opacity="0"/>
    </radialGradient>
    <radialGradient id="o" cx="0" cy="0" r="1" gradientTransform="matrix(0 70.5 -80 0 182 182)" gradientUnits="userSpaceOnUse">
      <stop stop-color="#fff" stop-opacity=".1"/>
      <stop offset="1" stop-color="#fff" stop-opacity="0"/>
    </radialGradient>
    <radialGradient id="p" cx="0" cy="0" r="1" gradientTransform="matrix(0 70.5 -80 0 182 182)" gradientUnits="userSpaceOnUse">
      <stop stop-color="#fff" stop-opacity=".1"/>
      <stop offset="1" stop-color="#fff" stop-opacity="0"/>
    </radialGradient>
    <radialGradient id="q" cx="0" cy="0" r="1" gradientTransform="matrix(0 70.5 -80 0 182 182)" gradientUnits="userSpaceOnUse">
      <stop stop-color="#fff" stop-opacity=".1"/>
      <stop offset="1" stop-color="#fff" stop-opacity="0"/>
    </radialGradient>
    <radialGradient id="r" cx="0" cy="0" r="1" gradientTransform="matrix(0 70.5 -80 0 182 182)" gradientUnits="userSpaceOnUse">
      <stop stop-color="#fff" stop-opacity=".1"/>
      <stop offset="1" stop-color="#fff" stop-opacity="0"/>
    </radialGradient>
    <radialGradient id="s" cx="0" cy="0" r="1" gradientTransform="matrix(0 70.5 -80 0 182 182)" gradientUnits="userSpaceOnUse">
      <stop stop-color="#fff" stop-opacity=".1"/>
      <stop offset="1" stop-color="#fff" stop-opacity="0"/>
    </radialGradient>
    <radialGradient id="t" cx="0" cy="0" r="1" gradientTransform="matrix(0 70.5 -80 0 182 182)" gradientUnits="userSpaceOnUse">
      <stop stop-color="#fff" stop-opacity=".1"/>
      <stop offset="1" stop-color="#fff" stop-opacity="0"/>
    </radialGradient>
    <radialGradient id="u" cx="0" cy="0" r="1" gradientTransform="matrix(0 70.5 -80 0 182 182)" gradientUnits="userSpaceOnUse">
      <stop stop-color="#fff" stop-opacity=".1"/>
      <stop offset="1" stop-color="#fff" stop-opacity="0"/>
    </radialGradient>
    <radialGradient id="v" cx="0" cy="0" r="1" gradientTransform="matrix(0 70.5 -80 0 182 182)" gradientUnits="userSpaceOnUse">
      <stop stop-color="#fff" stop-opacity=".1"/>
      <stop offset="1" stop-color="#fff" stop-opacity="0"/>
    </radialGradient>
    <linearGradient id="x" x1="182" x2="182" y1="99" y2="265" gradientUnits="userSpaceOnUse">
      <stop stop-color="#02DEFF" stop-opacity=".7"/>
      <stop offset=".39" stop-color="#0056D8"/>
      <stop offset=".78" stop-color="#5700AD" stop-opacity=".67"/>
    </linearGradient>
    <linearGradient id="z" x1="182" x2="182" y1="99" y2="265" gradientUnits="userSpaceOnUse">
      <stop stop-color="#02DEFF" stop-opacity=".7"/>
      <stop offset=".39" stop-color="#0056D8"/>
      <stop offset=".78" stop-color="#5700AD" stop-opacity=".33"/>
    </linearGradient>
    <linearGradient id="A" x1="214" x2="214" y1="145" y2="256" gradientUnits="userSpaceOnUse">
      <stop offset=".17" stop-color="#fff" stop-opacity=".08"/>
      <stop offset=".83" stop-color="#fff" stop-opacity="0"/>
    </linearGradient>
    <linearGradient id="B" x1="150" x2="150" y1="145" y2="256.11" gradientUnits="userSpaceOnUse">
      <stop offset=".17" stop-color="#fff" stop-opacity=".08"/>
      <stop offset=".83" stop-color="#fff" stop-opacity="0"/>
    </linearGradient>
    <linearGradient id="C" x1="182" x2="182" y1="108" y2="182" gradientUnits="userSpaceOnUse">
      <stop stop-color="#fff" stop-opacity=".2"/>
      <stop offset="1" stop-color="#fff" stop-opacity="0"/>
    </linearGradient>
    <linearGradient id="E" x1="182" x2="182" y1="99" y2="265" gradientUnits="userSpaceOnUse">
      <stop stop-color="#fff" stop-opacity=".7"/>
      <stop offset=".78" stop-color="#fff" stop-opacity=".2"/>
    </linearGradient>
    <filter id="w" width="272" height="294" x="46" y="35" color-interpolation-filters="sRGB" filterUnits="userSpaceOnUse">
      <feFlood flood-opacity="0" result="BackgroundImageFix"/>
      <feBlend in="SourceGraphic" in2="BackgroundImageFix" result="shape"/>
      <feGaussianBlur result="effect1_foregroundBlur_391_11104" stdDeviation="32"/>
    </filter>
    <filter id="y" width="212" height="234" x="76" y="65" color-interpolation-filters="sRGB" filterUnits="userSpaceOnUse">
      <feFlood flood-opacity="0" result="BackgroundImageFix"/>
      <feBlend in="SourceGraphic" in2="BackgroundImageFix" result="shape"/>
      <feGaussianBlur result="effect1_foregroundBlur_391_11104" stdDeviation="17"/>
    </filter>
    <filter id="D" width="192" height="211.53" x="86" y="76.23" color-interpolation-filters="sRGB" filterUnits="userSpaceOnUse">
      <feFlood flood-opacity="0" result="BackgroundImageFix"/>
      <feColorMatrix in="SourceAlpha" result="hardAlpha" values="0 0 0 0 0 0 0 0 0 0 0 0 0 0 0 0 0 0 127 0"/>
      <feOffset/>
      <feGaussianBlur stdDeviation="12"/>
      <feComposite in2="hardAlpha" operator="out"/>
      <feColorMatrix values="0 0 0 0 0 0 0 0 0 0 0 0 0 0 0 0 0 0 0.4 0"/>
      <feBlend in2="BackgroundImageFix" result="effect1_dropShadow_391_11104"/>
      <feBlend in="SourceGraphic" in2="effect1_dropShadow_391_11104" result="shape"/>
    </filter>
  </defs>
</svg>